<?xml version="1.0" encoding="utf-8" standalone="no"?>
<!DOCTYPE svg PUBLIC "-//W3C//DTD SVG 1.1//EN"
  "http://www.w3.org/Graphics/SVG/1.1/DTD/svg11.dtd">
<svg xmlns:xlink="http://www.w3.org/1999/xlink" width="720.83125pt" height="155.63625pt" viewBox="0 0 720.83125 155.63625" xmlns="http://www.w3.org/2000/svg" version="1.1">
 <metadata>
  <rdf:RDF xmlns:dc="http://purl.org/dc/elements/1.1/" xmlns:cc="http://creativecommons.org/ns#" xmlns:rdf="http://www.w3.org/1999/02/22-rdf-syntax-ns#">
   <cc:Work>
    <dc:type rdf:resource="http://purl.org/dc/dcmitype/StillImage"/>
    <dc:date>2026-06-30T16:58:35.571461</dc:date>
    <dc:format>image/svg+xml</dc:format>
    <dc:creator>
     <cc:Agent>
      <dc:title>Matplotlib v3.10.7, https://matplotlib.org/</dc:title>
     </cc:Agent>
    </dc:creator>
   </cc:Work>
  </rdf:RDF>
 </metadata>
 <defs>
  <style type="text/css">*{stroke-linejoin: round; stroke-linecap: butt}</style>
 </defs>
 <g id="figure_1">
  <g id="patch_1">
   <path d="M 0 155.63625 
L 720.83125 155.63625 
L 720.83125 0 
L 0 0 
z
" style="fill: #ffffff"/>
  </g>
  <g id="axes_1">
   <g id="patch_2">
    <path d="M 43.78125 118.08 
L 601.78125 118.08 
L 601.78125 7.2 
L 43.78125 7.2 
z
" style="fill: #ffffff"/>
   </g>
   <g id="matplotlib.axis_1">
    <g id="xtick_1">
     <g id="line2d_1">
      <defs>
       <path id="mf1c3248a6e" d="M 0 0 
L 0 3.5 
" style="stroke: #000000; stroke-width: 0.8"/>
      </defs>
      <g>
       <use xlink:href="#mf1c3248a6e" x="66.658913" y="118.08" style="stroke: #000000; stroke-width: 0.8"/>
      </g>
     </g>
     <g id="text_1">
      <!-- 3950 -->
      <g transform="translate(53.933913 132.678438) scale(0.1 -0.1)">
       <defs>
        <path id="DejaVuSans-33" d="M 2597 2516 
Q 3050 2419 3304 2112 
Q 3559 1806 3559 1356 
Q 3559 666 3084 287 
Q 2609 -91 1734 -91 
Q 1441 -91 1130 -33 
Q 819 25 488 141 
L 488 750 
Q 750 597 1062 519 
Q 1375 441 1716 441 
Q 2309 441 2620 675 
Q 2931 909 2931 1356 
Q 2931 1769 2642 2001 
Q 2353 2234 1838 2234 
L 1294 2234 
L 1294 2753 
L 1863 2753 
Q 2328 2753 2575 2939 
Q 2822 3125 2822 3475 
Q 2822 3834 2567 4026 
Q 2313 4219 1838 4219 
Q 1578 4219 1281 4162 
Q 984 4106 628 3988 
L 628 4550 
Q 988 4650 1302 4700 
Q 1616 4750 1894 4750 
Q 2613 4750 3031 4423 
Q 3450 4097 3450 3541 
Q 3450 3153 3228 2886 
Q 3006 2619 2597 2516 
z
" transform="scale(0.015625)"/>
        <path id="DejaVuSans-39" d="M 703 97 
L 703 672 
Q 941 559 1184 500 
Q 1428 441 1663 441 
Q 2288 441 2617 861 
Q 2947 1281 2994 2138 
Q 2813 1869 2534 1725 
Q 2256 1581 1919 1581 
Q 1219 1581 811 2004 
Q 403 2428 403 3163 
Q 403 3881 828 4315 
Q 1253 4750 1959 4750 
Q 2769 4750 3195 4129 
Q 3622 3509 3622 2328 
Q 3622 1225 3098 567 
Q 2575 -91 1691 -91 
Q 1453 -91 1209 -44 
Q 966 3 703 97 
z
M 1959 2075 
Q 2384 2075 2632 2365 
Q 2881 2656 2881 3163 
Q 2881 3666 2632 3958 
Q 2384 4250 1959 4250 
Q 1534 4250 1286 3958 
Q 1038 3666 1038 3163 
Q 1038 2656 1286 2365 
Q 1534 2075 1959 2075 
z
" transform="scale(0.015625)"/>
        <path id="DejaVuSans-35" d="M 691 4666 
L 3169 4666 
L 3169 4134 
L 1269 4134 
L 1269 2991 
Q 1406 3038 1543 3061 
Q 1681 3084 1819 3084 
Q 2600 3084 3056 2656 
Q 3513 2228 3513 1497 
Q 3513 744 3044 326 
Q 2575 -91 1722 -91 
Q 1428 -91 1123 -41 
Q 819 9 494 109 
L 494 744 
Q 775 591 1075 516 
Q 1375 441 1709 441 
Q 2250 441 2565 725 
Q 2881 1009 2881 1497 
Q 2881 1984 2565 2268 
Q 2250 2553 1709 2553 
Q 1456 2553 1204 2497 
Q 953 2441 691 2322 
L 691 4666 
z
" transform="scale(0.015625)"/>
        <path id="DejaVuSans-30" d="M 2034 4250 
Q 1547 4250 1301 3770 
Q 1056 3291 1056 2328 
Q 1056 1369 1301 889 
Q 1547 409 2034 409 
Q 2525 409 2770 889 
Q 3016 1369 3016 2328 
Q 3016 3291 2770 3770 
Q 2525 4250 2034 4250 
z
M 2034 4750 
Q 2819 4750 3233 4129 
Q 3647 3509 3647 2328 
Q 3647 1150 3233 529 
Q 2819 -91 2034 -91 
Q 1250 -91 836 529 
Q 422 1150 422 2328 
Q 422 3509 836 4129 
Q 1250 4750 2034 4750 
z
" transform="scale(0.015625)"/>
       </defs>
       <use xlink:href="#DejaVuSans-33"/>
       <use xlink:href="#DejaVuSans-39" transform="translate(63.623047 0)"/>
       <use xlink:href="#DejaVuSans-35" transform="translate(127.246094 0)"/>
       <use xlink:href="#DejaVuSans-30" transform="translate(190.869141 0)"/>
      </g>
     </g>
    </g>
    <g id="xtick_2">
     <g id="line2d_2">
      <g>
       <use xlink:href="#mf1c3248a6e" x="139.31158" y="118.08" style="stroke: #000000; stroke-width: 0.8"/>
      </g>
     </g>
     <g id="text_2">
      <!-- 4000 -->
      <g transform="translate(126.58658 132.678438) scale(0.1 -0.1)">
       <defs>
        <path id="DejaVuSans-34" d="M 2419 4116 
L 825 1625 
L 2419 1625 
L 2419 4116 
z
M 2253 4666 
L 3047 4666 
L 3047 1625 
L 3713 1625 
L 3713 1100 
L 3047 1100 
L 3047 0 
L 2419 0 
L 2419 1100 
L 313 1100 
L 313 1709 
L 2253 4666 
z
" transform="scale(0.015625)"/>
       </defs>
       <use xlink:href="#DejaVuSans-34"/>
       <use xlink:href="#DejaVuSans-30" transform="translate(63.623047 0)"/>
       <use xlink:href="#DejaVuSans-30" transform="translate(127.246094 0)"/>
       <use xlink:href="#DejaVuSans-30" transform="translate(190.869141 0)"/>
      </g>
     </g>
    </g>
    <g id="xtick_3">
     <g id="line2d_3">
      <g>
       <use xlink:href="#mf1c3248a6e" x="211.964248" y="118.08" style="stroke: #000000; stroke-width: 0.8"/>
      </g>
     </g>
     <g id="text_3">
      <!-- 4050 -->
      <g transform="translate(199.239248 132.678438) scale(0.1 -0.1)">
       <use xlink:href="#DejaVuSans-34"/>
       <use xlink:href="#DejaVuSans-30" transform="translate(63.623047 0)"/>
       <use xlink:href="#DejaVuSans-35" transform="translate(127.246094 0)"/>
       <use xlink:href="#DejaVuSans-30" transform="translate(190.869141 0)"/>
      </g>
     </g>
    </g>
    <g id="xtick_4">
     <g id="line2d_4">
      <g>
       <use xlink:href="#mf1c3248a6e" x="284.616915" y="118.08" style="stroke: #000000; stroke-width: 0.8"/>
      </g>
     </g>
     <g id="text_4">
      <!-- 4100 -->
      <g transform="translate(271.891915 132.678438) scale(0.1 -0.1)">
       <defs>
        <path id="DejaVuSans-31" d="M 794 531 
L 1825 531 
L 1825 4091 
L 703 3866 
L 703 4441 
L 1819 4666 
L 2450 4666 
L 2450 531 
L 3481 531 
L 3481 0 
L 794 0 
L 794 531 
z
" transform="scale(0.015625)"/>
       </defs>
       <use xlink:href="#DejaVuSans-34"/>
       <use xlink:href="#DejaVuSans-31" transform="translate(63.623047 0)"/>
       <use xlink:href="#DejaVuSans-30" transform="translate(127.246094 0)"/>
       <use xlink:href="#DejaVuSans-30" transform="translate(190.869141 0)"/>
      </g>
     </g>
    </g>
    <g id="xtick_5">
     <g id="line2d_5">
      <g>
       <use xlink:href="#mf1c3248a6e" x="357.269583" y="118.08" style="stroke: #000000; stroke-width: 0.8"/>
      </g>
     </g>
     <g id="text_5">
      <!-- 4150 -->
      <g transform="translate(344.544583 132.678438) scale(0.1 -0.1)">
       <use xlink:href="#DejaVuSans-34"/>
       <use xlink:href="#DejaVuSans-31" transform="translate(63.623047 0)"/>
       <use xlink:href="#DejaVuSans-35" transform="translate(127.246094 0)"/>
       <use xlink:href="#DejaVuSans-30" transform="translate(190.869141 0)"/>
      </g>
     </g>
    </g>
    <g id="xtick_6">
     <g id="line2d_6">
      <g>
       <use xlink:href="#mf1c3248a6e" x="429.92225" y="118.08" style="stroke: #000000; stroke-width: 0.8"/>
      </g>
     </g>
     <g id="text_6">
      <!-- 4200 -->
      <g transform="translate(417.19725 132.678438) scale(0.1 -0.1)">
       <defs>
        <path id="DejaVuSans-32" d="M 1228 531 
L 3431 531 
L 3431 0 
L 469 0 
L 469 531 
Q 828 903 1448 1529 
Q 2069 2156 2228 2338 
Q 2531 2678 2651 2914 
Q 2772 3150 2772 3378 
Q 2772 3750 2511 3984 
Q 2250 4219 1831 4219 
Q 1534 4219 1204 4116 
Q 875 4013 500 3803 
L 500 4441 
Q 881 4594 1212 4672 
Q 1544 4750 1819 4750 
Q 2544 4750 2975 4387 
Q 3406 4025 3406 3419 
Q 3406 3131 3298 2873 
Q 3191 2616 2906 2266 
Q 2828 2175 2409 1742 
Q 1991 1309 1228 531 
z
" transform="scale(0.015625)"/>
       </defs>
       <use xlink:href="#DejaVuSans-34"/>
       <use xlink:href="#DejaVuSans-32" transform="translate(63.623047 0)"/>
       <use xlink:href="#DejaVuSans-30" transform="translate(127.246094 0)"/>
       <use xlink:href="#DejaVuSans-30" transform="translate(190.869141 0)"/>
      </g>
     </g>
    </g>
    <g id="xtick_7">
     <g id="line2d_7">
      <g>
       <use xlink:href="#mf1c3248a6e" x="502.574918" y="118.08" style="stroke: #000000; stroke-width: 0.8"/>
      </g>
     </g>
     <g id="text_7">
      <!-- 4250 -->
      <g transform="translate(489.849918 132.678438) scale(0.1 -0.1)">
       <use xlink:href="#DejaVuSans-34"/>
       <use xlink:href="#DejaVuSans-32" transform="translate(63.623047 0)"/>
       <use xlink:href="#DejaVuSans-35" transform="translate(127.246094 0)"/>
       <use xlink:href="#DejaVuSans-30" transform="translate(190.869141 0)"/>
      </g>
     </g>
    </g>
    <g id="xtick_8">
     <g id="line2d_8">
      <g>
       <use xlink:href="#mf1c3248a6e" x="575.227585" y="118.08" style="stroke: #000000; stroke-width: 0.8"/>
      </g>
     </g>
     <g id="text_8">
      <!-- 4300 -->
      <g transform="translate(562.502585 132.678438) scale(0.1 -0.1)">
       <use xlink:href="#DejaVuSans-34"/>
       <use xlink:href="#DejaVuSans-33" transform="translate(63.623047 0)"/>
       <use xlink:href="#DejaVuSans-30" transform="translate(127.246094 0)"/>
       <use xlink:href="#DejaVuSans-30" transform="translate(190.869141 0)"/>
      </g>
     </g>
    </g>
    <g id="text_9">
     <!-- m/z -->
     <g transform="translate(313.602344 146.356562) scale(0.1 -0.1)">
      <defs>
       <path id="DejaVuSans-6d" d="M 3328 2828 
Q 3544 3216 3844 3400 
Q 4144 3584 4550 3584 
Q 5097 3584 5394 3201 
Q 5691 2819 5691 2113 
L 5691 0 
L 5113 0 
L 5113 2094 
Q 5113 2597 4934 2840 
Q 4756 3084 4391 3084 
Q 3944 3084 3684 2787 
Q 3425 2491 3425 1978 
L 3425 0 
L 2847 0 
L 2847 2094 
Q 2847 2600 2669 2842 
Q 2491 3084 2119 3084 
Q 1678 3084 1418 2786 
Q 1159 2488 1159 1978 
L 1159 0 
L 581 0 
L 581 3500 
L 1159 3500 
L 1159 2956 
Q 1356 3278 1631 3431 
Q 1906 3584 2284 3584 
Q 2666 3584 2933 3390 
Q 3200 3197 3328 2828 
z
" transform="scale(0.015625)"/>
       <path id="DejaVuSans-2f" d="M 1625 4666 
L 2156 4666 
L 531 -594 
L 0 -594 
L 1625 4666 
z
" transform="scale(0.015625)"/>
       <path id="DejaVuSans-7a" d="M 353 3500 
L 3084 3500 
L 3084 2975 
L 922 459 
L 3084 459 
L 3084 0 
L 275 0 
L 275 525 
L 2438 3041 
L 353 3041 
L 353 3500 
z
" transform="scale(0.015625)"/>
      </defs>
      <use xlink:href="#DejaVuSans-6d"/>
      <use xlink:href="#DejaVuSans-2f" transform="translate(97.412109 0)"/>
      <use xlink:href="#DejaVuSans-7a" transform="translate(131.103516 0)"/>
     </g>
    </g>
   </g>
   <g id="matplotlib.axis_2">
    <g id="ytick_1">
     <g id="line2d_9">
      <defs>
       <path id="m5ada487723" d="M 0 0 
L -3.5 0 
" style="stroke: #000000; stroke-width: 0.8"/>
      </defs>
      <g>
       <use xlink:href="#m5ada487723" x="43.78125" y="113.04" style="stroke: #000000; stroke-width: 0.8"/>
      </g>
     </g>
     <g id="text_10">
      <!-- 0.0 -->
      <g transform="translate(20.878125 116.839219) scale(0.1 -0.1)">
       <defs>
        <path id="DejaVuSans-2e" d="M 684 794 
L 1344 794 
L 1344 0 
L 684 0 
L 684 794 
z
" transform="scale(0.015625)"/>
       </defs>
       <use xlink:href="#DejaVuSans-30"/>
       <use xlink:href="#DejaVuSans-2e" transform="translate(63.623047 0)"/>
       <use xlink:href="#DejaVuSans-30" transform="translate(95.410156 0)"/>
      </g>
     </g>
    </g>
    <g id="ytick_2">
     <g id="line2d_10">
      <g>
       <use xlink:href="#m5ada487723" x="43.78125" y="76.918658" style="stroke: #000000; stroke-width: 0.8"/>
      </g>
     </g>
     <g id="text_11">
      <!-- 0.1 -->
      <g transform="translate(20.878125 80.717877) scale(0.1 -0.1)">
       <use xlink:href="#DejaVuSans-30"/>
       <use xlink:href="#DejaVuSans-2e" transform="translate(63.623047 0)"/>
       <use xlink:href="#DejaVuSans-31" transform="translate(95.410156 0)"/>
      </g>
     </g>
    </g>
    <g id="ytick_3">
     <g id="line2d_11">
      <g>
       <use xlink:href="#m5ada487723" x="43.78125" y="40.797316" style="stroke: #000000; stroke-width: 0.8"/>
      </g>
     </g>
     <g id="text_12">
      <!-- 0.2 -->
      <g transform="translate(20.878125 44.596535) scale(0.1 -0.1)">
       <use xlink:href="#DejaVuSans-30"/>
       <use xlink:href="#DejaVuSans-2e" transform="translate(63.623047 0)"/>
       <use xlink:href="#DejaVuSans-32" transform="translate(95.410156 0)"/>
      </g>
     </g>
    </g>
    <g id="text_13">
     <!-- Relative intensity -->
     <g transform="translate(14.798438 106.069687) rotate(-90) scale(0.1 -0.1)">
      <defs>
       <path id="DejaVuSans-52" d="M 2841 2188 
Q 3044 2119 3236 1894 
Q 3428 1669 3622 1275 
L 4263 0 
L 3584 0 
L 2988 1197 
Q 2756 1666 2539 1819 
Q 2322 1972 1947 1972 
L 1259 1972 
L 1259 0 
L 628 0 
L 628 4666 
L 2053 4666 
Q 2853 4666 3247 4331 
Q 3641 3997 3641 3322 
Q 3641 2881 3436 2590 
Q 3231 2300 2841 2188 
z
M 1259 4147 
L 1259 2491 
L 2053 2491 
Q 2509 2491 2742 2702 
Q 2975 2913 2975 3322 
Q 2975 3731 2742 3939 
Q 2509 4147 2053 4147 
L 1259 4147 
z
" transform="scale(0.015625)"/>
       <path id="DejaVuSans-65" d="M 3597 1894 
L 3597 1613 
L 953 1613 
Q 991 1019 1311 708 
Q 1631 397 2203 397 
Q 2534 397 2845 478 
Q 3156 559 3463 722 
L 3463 178 
Q 3153 47 2828 -22 
Q 2503 -91 2169 -91 
Q 1331 -91 842 396 
Q 353 884 353 1716 
Q 353 2575 817 3079 
Q 1281 3584 2069 3584 
Q 2775 3584 3186 3129 
Q 3597 2675 3597 1894 
z
M 3022 2063 
Q 3016 2534 2758 2815 
Q 2500 3097 2075 3097 
Q 1594 3097 1305 2825 
Q 1016 2553 972 2059 
L 3022 2063 
z
" transform="scale(0.015625)"/>
       <path id="DejaVuSans-6c" d="M 603 4863 
L 1178 4863 
L 1178 0 
L 603 0 
L 603 4863 
z
" transform="scale(0.015625)"/>
       <path id="DejaVuSans-61" d="M 2194 1759 
Q 1497 1759 1228 1600 
Q 959 1441 959 1056 
Q 959 750 1161 570 
Q 1363 391 1709 391 
Q 2188 391 2477 730 
Q 2766 1069 2766 1631 
L 2766 1759 
L 2194 1759 
z
M 3341 1997 
L 3341 0 
L 2766 0 
L 2766 531 
Q 2569 213 2275 61 
Q 1981 -91 1556 -91 
Q 1019 -91 701 211 
Q 384 513 384 1019 
Q 384 1609 779 1909 
Q 1175 2209 1959 2209 
L 2766 2209 
L 2766 2266 
Q 2766 2663 2505 2880 
Q 2244 3097 1772 3097 
Q 1472 3097 1187 3025 
Q 903 2953 641 2809 
L 641 3341 
Q 956 3463 1253 3523 
Q 1550 3584 1831 3584 
Q 2591 3584 2966 3190 
Q 3341 2797 3341 1997 
z
" transform="scale(0.015625)"/>
       <path id="DejaVuSans-74" d="M 1172 4494 
L 1172 3500 
L 2356 3500 
L 2356 3053 
L 1172 3053 
L 1172 1153 
Q 1172 725 1289 603 
Q 1406 481 1766 481 
L 2356 481 
L 2356 0 
L 1766 0 
Q 1100 0 847 248 
Q 594 497 594 1153 
L 594 3053 
L 172 3053 
L 172 3500 
L 594 3500 
L 594 4494 
L 1172 4494 
z
" transform="scale(0.015625)"/>
       <path id="DejaVuSans-69" d="M 603 3500 
L 1178 3500 
L 1178 0 
L 603 0 
L 603 3500 
z
M 603 4863 
L 1178 4863 
L 1178 4134 
L 603 4134 
L 603 4863 
z
" transform="scale(0.015625)"/>
       <path id="DejaVuSans-76" d="M 191 3500 
L 800 3500 
L 1894 563 
L 2988 3500 
L 3597 3500 
L 2284 0 
L 1503 0 
L 191 3500 
z
" transform="scale(0.015625)"/>
       <path id="DejaVuSans-20" transform="scale(0.015625)"/>
       <path id="DejaVuSans-6e" d="M 3513 2113 
L 3513 0 
L 2938 0 
L 2938 2094 
Q 2938 2591 2744 2837 
Q 2550 3084 2163 3084 
Q 1697 3084 1428 2787 
Q 1159 2491 1159 1978 
L 1159 0 
L 581 0 
L 581 3500 
L 1159 3500 
L 1159 2956 
Q 1366 3272 1645 3428 
Q 1925 3584 2291 3584 
Q 2894 3584 3203 3211 
Q 3513 2838 3513 2113 
z
" transform="scale(0.015625)"/>
       <path id="DejaVuSans-73" d="M 2834 3397 
L 2834 2853 
Q 2591 2978 2328 3040 
Q 2066 3103 1784 3103 
Q 1356 3103 1142 2972 
Q 928 2841 928 2578 
Q 928 2378 1081 2264 
Q 1234 2150 1697 2047 
L 1894 2003 
Q 2506 1872 2764 1633 
Q 3022 1394 3022 966 
Q 3022 478 2636 193 
Q 2250 -91 1575 -91 
Q 1294 -91 989 -36 
Q 684 19 347 128 
L 347 722 
Q 666 556 975 473 
Q 1284 391 1588 391 
Q 1994 391 2212 530 
Q 2431 669 2431 922 
Q 2431 1156 2273 1281 
Q 2116 1406 1581 1522 
L 1381 1569 
Q 847 1681 609 1914 
Q 372 2147 372 2553 
Q 372 3047 722 3315 
Q 1072 3584 1716 3584 
Q 2034 3584 2315 3537 
Q 2597 3491 2834 3397 
z
" transform="scale(0.015625)"/>
       <path id="DejaVuSans-79" d="M 2059 -325 
Q 1816 -950 1584 -1140 
Q 1353 -1331 966 -1331 
L 506 -1331 
L 506 -850 
L 844 -850 
Q 1081 -850 1212 -737 
Q 1344 -625 1503 -206 
L 1606 56 
L 191 3500 
L 800 3500 
L 1894 763 
L 2988 3500 
L 3597 3500 
L 2059 -325 
z
" transform="scale(0.015625)"/>
      </defs>
      <use xlink:href="#DejaVuSans-52"/>
      <use xlink:href="#DejaVuSans-65" transform="translate(64.982422 0)"/>
      <use xlink:href="#DejaVuSans-6c" transform="translate(126.505859 0)"/>
      <use xlink:href="#DejaVuSans-61" transform="translate(154.289062 0)"/>
      <use xlink:href="#DejaVuSans-74" transform="translate(215.568359 0)"/>
      <use xlink:href="#DejaVuSans-69" transform="translate(254.777344 0)"/>
      <use xlink:href="#DejaVuSans-76" transform="translate(282.560547 0)"/>
      <use xlink:href="#DejaVuSans-65" transform="translate(341.740234 0)"/>
      <use xlink:href="#DejaVuSans-20" transform="translate(403.263672 0)"/>
      <use xlink:href="#DejaVuSans-69" transform="translate(435.050781 0)"/>
      <use xlink:href="#DejaVuSans-6e" transform="translate(462.833984 0)"/>
      <use xlink:href="#DejaVuSans-74" transform="translate(526.212891 0)"/>
      <use xlink:href="#DejaVuSans-65" transform="translate(565.421875 0)"/>
      <use xlink:href="#DejaVuSans-6e" transform="translate(626.945312 0)"/>
      <use xlink:href="#DejaVuSans-73" transform="translate(690.324219 0)"/>
      <use xlink:href="#DejaVuSans-69" transform="translate(742.423828 0)"/>
      <use xlink:href="#DejaVuSans-74" transform="translate(770.207031 0)"/>
      <use xlink:href="#DejaVuSans-79" transform="translate(809.416016 0)"/>
     </g>
    </g>
   </g>
   <g id="LineCollection_1">
    <path d="M 465.929024 113.04 
L 465.929024 57.202931 
" clip-path="url(#pa7242e7809)" style="fill: none; stroke: #0072b2; stroke-width: 1.5"/>
    <path d="M 467.385909 113.04 
L 467.385909 17.154082 
" clip-path="url(#pa7242e7809)" style="fill: none; stroke: #0072b2; stroke-width: 1.5"/>
    <path d="M 468.842641 113.04 
L 468.842641 22.337362 
" clip-path="url(#pa7242e7809)" style="fill: none; stroke: #0072b2; stroke-width: 1.5"/>
    <path d="M 470.299293 113.04 
L 470.299293 51.535112 
" clip-path="url(#pa7242e7809)" style="fill: none; stroke: #0072b2; stroke-width: 1.5"/>
    <path d="M 471.755889 113.04 
L 471.755889 79.844051 
" clip-path="url(#pa7242e7809)" style="fill: none; stroke: #0072b2; stroke-width: 1.5"/>
    <path d="M 473.212445 113.04 
L 473.212445 97.962421 
" clip-path="url(#pa7242e7809)" style="fill: none; stroke: #0072b2; stroke-width: 1.5"/>
    <path d="M 474.668967 113.04 
L 474.668967 107.075335 
" clip-path="url(#pa7242e7809)" style="fill: none; stroke: #0072b2; stroke-width: 1.5"/>
    <path d="M 476.125464 113.04 
L 476.125464 110.93651 
" clip-path="url(#pa7242e7809)" style="fill: none; stroke: #0072b2; stroke-width: 1.5"/>
    <path d="M 477.581939 113.04 
L 477.581939 112.367571 
" clip-path="url(#pa7242e7809)" style="fill: none; stroke: #0072b2; stroke-width: 1.5"/>
    <path d="M 479.038396 113.04 
L 479.038396 112.84269 
" clip-path="url(#pa7242e7809)" style="fill: none; stroke: #0072b2; stroke-width: 1.5"/>
    <path d="M 480.494837 113.04 
L 480.494837 112.986336 
" clip-path="url(#pa7242e7809)" style="fill: none; stroke: #0072b2; stroke-width: 1.5"/>
    <path d="M 481.951265 113.04 
L 481.951265 113.026366 
" clip-path="url(#pa7242e7809)" style="fill: none; stroke: #0072b2; stroke-width: 1.5"/>
   </g>
   <g id="line2d_12">
    <defs>
     <path id="mc9cac219cd" d="M 0 1.5 
C 0.397805 1.5 0.77937 1.341951 1.06066 1.06066 
C 1.341951 0.77937 1.5 0.397805 1.5 0 
C 1.5 -0.397805 1.341951 -0.77937 1.06066 -1.06066 
C 0.77937 -1.341951 0.397805 -1.5 0 -1.5 
C -0.397805 -1.5 -0.77937 -1.341951 -1.06066 -1.06066 
C -1.341951 -0.77937 -1.5 -0.397805 -1.5 0 
C -1.5 0.397805 -1.341951 0.77937 -1.06066 1.06066 
C -0.77937 1.341951 -0.397805 1.5 0 1.5 
z
" style="stroke: #0072b2"/>
    </defs>
    <g clip-path="url(#pa7242e7809)">
     <use xlink:href="#mc9cac219cd" x="465.929024" y="57.202931" style="fill: #0072b2; stroke: #0072b2"/>
     <use xlink:href="#mc9cac219cd" x="467.385909" y="17.154082" style="fill: #0072b2; stroke: #0072b2"/>
     <use xlink:href="#mc9cac219cd" x="468.842641" y="22.337362" style="fill: #0072b2; stroke: #0072b2"/>
     <use xlink:href="#mc9cac219cd" x="470.299293" y="51.535112" style="fill: #0072b2; stroke: #0072b2"/>
     <use xlink:href="#mc9cac219cd" x="471.755889" y="79.844051" style="fill: #0072b2; stroke: #0072b2"/>
     <use xlink:href="#mc9cac219cd" x="473.212445" y="97.962421" style="fill: #0072b2; stroke: #0072b2"/>
     <use xlink:href="#mc9cac219cd" x="474.668967" y="107.075335" style="fill: #0072b2; stroke: #0072b2"/>
     <use xlink:href="#mc9cac219cd" x="476.125464" y="110.93651" style="fill: #0072b2; stroke: #0072b2"/>
     <use xlink:href="#mc9cac219cd" x="477.581939" y="112.367571" style="fill: #0072b2; stroke: #0072b2"/>
     <use xlink:href="#mc9cac219cd" x="479.038396" y="112.84269" style="fill: #0072b2; stroke: #0072b2"/>
     <use xlink:href="#mc9cac219cd" x="480.494837" y="112.986336" style="fill: #0072b2; stroke: #0072b2"/>
     <use xlink:href="#mc9cac219cd" x="481.951265" y="113.026366" style="fill: #0072b2; stroke: #0072b2"/>
    </g>
   </g>
   <g id="line2d_13">
    <path d="M 465.929024 113.04 
L 481.951265 113.04 
" clip-path="url(#pa7242e7809)" style="fill: none; stroke: #0072b2; stroke-width: 1.5; stroke-linecap: square"/>
   </g>
   <g id="LineCollection_2">
    <path d="M 69.144886 113.04 
L 69.144886 52.867886 
" clip-path="url(#pa7242e7809)" style="fill: none; stroke: #cc6677; stroke-width: 1.5"/>
    <path d="M 70.601732 113.04 
L 70.601732 15.994878 
" clip-path="url(#pa7242e7809)" style="fill: none; stroke: #cc6677; stroke-width: 1.5"/>
    <path d="M 72.058019 113.04 
L 72.058019 23.902642 
" clip-path="url(#pa7242e7809)" style="fill: none; stroke: #cc6677; stroke-width: 1.5"/>
    <path d="M 73.514084 113.04 
L 73.514084 53.442571 
" clip-path="url(#pa7242e7809)" style="fill: none; stroke: #cc6677; stroke-width: 1.5"/>
    <path d="M 74.970034 113.04 
L 74.970034 81.039756 
" clip-path="url(#pa7242e7809)" style="fill: none; stroke: #cc6677; stroke-width: 1.5"/>
    <path d="M 76.425934 113.04 
L 76.425934 98.506242 
" clip-path="url(#pa7242e7809)" style="fill: none; stroke: #cc6677; stroke-width: 1.5"/>
    <path d="M 77.881816 113.04 
L 77.881816 107.27422 
" clip-path="url(#pa7242e7809)" style="fill: none; stroke: #cc6677; stroke-width: 1.5"/>
    <path d="M 79.337699 113.04 
L 79.337699 110.997992 
" clip-path="url(#pa7242e7809)" style="fill: none; stroke: #cc6677; stroke-width: 1.5"/>
    <path d="M 80.793595 113.04 
L 80.793595 112.384129 
" clip-path="url(#pa7242e7809)" style="fill: none; stroke: #cc6677; stroke-width: 1.5"/>
    <path d="M 82.249508 113.04 
L 82.249508 112.846661 
" clip-path="url(#pa7242e7809)" style="fill: none; stroke: #cc6677; stroke-width: 1.5"/>
    <path d="M 83.705441 113.04 
L 83.705441 112.987203 
" clip-path="url(#pa7242e7809)" style="fill: none; stroke: #cc6677; stroke-width: 1.5"/>
    <path d="M 85.161394 113.04 
L 85.161394 113.026543 
" clip-path="url(#pa7242e7809)" style="fill: none; stroke: #cc6677; stroke-width: 1.5"/>
   </g>
   <g id="line2d_14">
    <defs>
     <path id="m7fe9bed9cb" d="M 0 1.5 
C 0.397805 1.5 0.77937 1.341951 1.06066 1.06066 
C 1.341951 0.77937 1.5 0.397805 1.5 0 
C 1.5 -0.397805 1.341951 -0.77937 1.06066 -1.06066 
C 0.77937 -1.341951 0.397805 -1.5 0 -1.5 
C -0.397805 -1.5 -0.77937 -1.341951 -1.06066 -1.06066 
C -1.341951 -0.77937 -1.5 -0.397805 -1.5 0 
C -1.5 0.397805 -1.341951 0.77937 -1.06066 1.06066 
C -0.77937 1.341951 -0.397805 1.5 0 1.5 
z
" style="stroke: #cc6677"/>
    </defs>
    <g clip-path="url(#pa7242e7809)">
     <use xlink:href="#m7fe9bed9cb" x="69.144886" y="52.867886" style="fill: #cc6677; stroke: #cc6677"/>
     <use xlink:href="#m7fe9bed9cb" x="70.601732" y="15.994878" style="fill: #cc6677; stroke: #cc6677"/>
     <use xlink:href="#m7fe9bed9cb" x="72.058019" y="23.902642" style="fill: #cc6677; stroke: #cc6677"/>
     <use xlink:href="#m7fe9bed9cb" x="73.514084" y="53.442571" style="fill: #cc6677; stroke: #cc6677"/>
     <use xlink:href="#m7fe9bed9cb" x="74.970034" y="81.039756" style="fill: #cc6677; stroke: #cc6677"/>
     <use xlink:href="#m7fe9bed9cb" x="76.425934" y="98.506242" style="fill: #cc6677; stroke: #cc6677"/>
     <use xlink:href="#m7fe9bed9cb" x="77.881816" y="107.27422" style="fill: #cc6677; stroke: #cc6677"/>
     <use xlink:href="#m7fe9bed9cb" x="79.337699" y="110.997992" style="fill: #cc6677; stroke: #cc6677"/>
     <use xlink:href="#m7fe9bed9cb" x="80.793595" y="112.384129" style="fill: #cc6677; stroke: #cc6677"/>
     <use xlink:href="#m7fe9bed9cb" x="82.249508" y="112.846661" style="fill: #cc6677; stroke: #cc6677"/>
     <use xlink:href="#m7fe9bed9cb" x="83.705441" y="112.987203" style="fill: #cc6677; stroke: #cc6677"/>
     <use xlink:href="#m7fe9bed9cb" x="85.161394" y="113.026543" style="fill: #cc6677; stroke: #cc6677"/>
    </g>
   </g>
   <g id="line2d_15">
    <path d="M 69.144886 113.04 
L 85.161394 113.04 
" clip-path="url(#pa7242e7809)" style="fill: none; stroke: #cc6677; stroke-width: 1.5; stroke-linecap: square"/>
   </g>
   <g id="LineCollection_3">
    <path d="M 175.218859 113.04 
L 175.218859 50.687626 
" clip-path="url(#pa7242e7809)" style="fill: none; stroke: #44aa99; stroke-width: 1.5"/>
    <path d="M 176.675673 113.04 
L 176.675673 12.24 
" clip-path="url(#pa7242e7809)" style="fill: none; stroke: #44aa99; stroke-width: 1.5"/>
    <path d="M 178.132342 113.04 
L 178.132342 22.820429 
" clip-path="url(#pa7242e7809)" style="fill: none; stroke: #44aa99; stroke-width: 1.5"/>
    <path d="M 179.588936 113.04 
L 179.588936 55.001615 
" clip-path="url(#pa7242e7809)" style="fill: none; stroke: #44aa99; stroke-width: 1.5"/>
    <path d="M 181.04548 113.04 
L 181.04548 83.268663 
" clip-path="url(#pa7242e7809)" style="fill: none; stroke: #44aa99; stroke-width: 1.5"/>
    <path d="M 182.501985 113.04 
L 182.501985 100.171765 
" clip-path="url(#pa7242e7809)" style="fill: none; stroke: #44aa99; stroke-width: 1.5"/>
    <path d="M 183.958462 113.04 
L 183.958462 108.190696 
" clip-path="url(#pa7242e7809)" style="fill: none; stroke: #44aa99; stroke-width: 1.5"/>
    <path d="M 185.414915 113.04 
L 185.414915 111.409658 
" clip-path="url(#pa7242e7809)" style="fill: none; stroke: #44aa99; stroke-width: 1.5"/>
    <path d="M 186.871348 113.04 
L 186.871348 112.542835 
" clip-path="url(#pa7242e7809)" style="fill: none; stroke: #44aa99; stroke-width: 1.5"/>
    <path d="M 188.327765 113.04 
L 188.327765 112.900767 
" clip-path="url(#pa7242e7809)" style="fill: none; stroke: #44aa99; stroke-width: 1.5"/>
    <path d="M 189.784168 113.04 
L 189.784168 113.003843 
" clip-path="url(#pa7242e7809)" style="fill: none; stroke: #44aa99; stroke-width: 1.5"/>
   </g>
   <g id="line2d_16">
    <defs>
     <path id="ma6e8fe1a2b" d="M 0 1.5 
C 0.397805 1.5 0.77937 1.341951 1.06066 1.06066 
C 1.341951 0.77937 1.5 0.397805 1.5 0 
C 1.5 -0.397805 1.341951 -0.77937 1.06066 -1.06066 
C 0.77937 -1.341951 0.397805 -1.5 0 -1.5 
C -0.397805 -1.5 -0.77937 -1.341951 -1.06066 -1.06066 
C -1.341951 -0.77937 -1.5 -0.397805 -1.5 0 
C -1.5 0.397805 -1.341951 0.77937 -1.06066 1.06066 
C -0.77937 1.341951 -0.397805 1.5 0 1.5 
z
" style="stroke: #44aa99"/>
    </defs>
    <g clip-path="url(#pa7242e7809)">
     <use xlink:href="#ma6e8fe1a2b" x="175.218859" y="50.687626" style="fill: #44aa99; stroke: #44aa99"/>
     <use xlink:href="#ma6e8fe1a2b" x="176.675673" y="12.24" style="fill: #44aa99; stroke: #44aa99"/>
     <use xlink:href="#ma6e8fe1a2b" x="178.132342" y="22.820429" style="fill: #44aa99; stroke: #44aa99"/>
     <use xlink:href="#ma6e8fe1a2b" x="179.588936" y="55.001615" style="fill: #44aa99; stroke: #44aa99"/>
     <use xlink:href="#ma6e8fe1a2b" x="181.04548" y="83.268663" style="fill: #44aa99; stroke: #44aa99"/>
     <use xlink:href="#ma6e8fe1a2b" x="182.501985" y="100.171765" style="fill: #44aa99; stroke: #44aa99"/>
     <use xlink:href="#ma6e8fe1a2b" x="183.958462" y="108.190696" style="fill: #44aa99; stroke: #44aa99"/>
     <use xlink:href="#ma6e8fe1a2b" x="185.414915" y="111.409658" style="fill: #44aa99; stroke: #44aa99"/>
     <use xlink:href="#ma6e8fe1a2b" x="186.871348" y="112.542835" style="fill: #44aa99; stroke: #44aa99"/>
     <use xlink:href="#ma6e8fe1a2b" x="188.327765" y="112.900767" style="fill: #44aa99; stroke: #44aa99"/>
     <use xlink:href="#ma6e8fe1a2b" x="189.784168" y="113.003843" style="fill: #44aa99; stroke: #44aa99"/>
    </g>
   </g>
   <g id="line2d_17">
    <path d="M 175.218859 113.04 
L 189.784168 113.04 
" clip-path="url(#pa7242e7809)" style="fill: none; stroke: #44aa99; stroke-width: 1.5; stroke-linecap: square"/>
   </g>
   <g id="LineCollection_4">
    <path d="M 560.395845 113.04 
L 560.395845 58.660075 
" clip-path="url(#pa7242e7809)" style="fill: none; stroke: #e69f00; stroke-width: 1.5"/>
    <path d="M 561.852649 113.04 
L 561.852649 18.101834 
" clip-path="url(#pa7242e7809)" style="fill: none; stroke: #e69f00; stroke-width: 1.5"/>
    <path d="M 563.309323 113.04 
L 563.309323 22.129401 
" clip-path="url(#pa7242e7809)" style="fill: none; stroke: #e69f00; stroke-width: 1.5"/>
    <path d="M 564.765924 113.04 
L 564.765924 50.780352 
" clip-path="url(#pa7242e7809)" style="fill: none; stroke: #e69f00; stroke-width: 1.5"/>
    <path d="M 566.222476 113.04 
L 566.222476 79.156625 
" clip-path="url(#pa7242e7809)" style="fill: none; stroke: #e69f00; stroke-width: 1.5"/>
    <path d="M 567.67899 113.04 
L 567.67899 97.540444 
" clip-path="url(#pa7242e7809)" style="fill: none; stroke: #e69f00; stroke-width: 1.5"/>
    <path d="M 569.135476 113.04 
L 569.135476 106.87046 
" clip-path="url(#pa7242e7809)" style="fill: none; stroke: #e69f00; stroke-width: 1.5"/>
    <path d="M 570.591937 113.04 
L 570.591937 110.852461 
" clip-path="url(#pa7242e7809)" style="fill: none; stroke: #e69f00; stroke-width: 1.5"/>
    <path d="M 572.048379 113.04 
L 572.048379 112.337357 
" clip-path="url(#pa7242e7809)" style="fill: none; stroke: #e69f00; stroke-width: 1.5"/>
    <path d="M 573.504804 113.04 
L 573.504804 112.832949 
" clip-path="url(#pa7242e7809)" style="fill: none; stroke: #e69f00; stroke-width: 1.5"/>
    <path d="M 574.961215 113.04 
L 574.961215 112.983474 
" clip-path="url(#pa7242e7809)" style="fill: none; stroke: #e69f00; stroke-width: 1.5"/>
    <path d="M 576.417614 113.04 
L 576.417614 113.025591 
" clip-path="url(#pa7242e7809)" style="fill: none; stroke: #e69f00; stroke-width: 1.5"/>
   </g>
   <g id="line2d_18">
    <defs>
     <path id="m5d44c39d37" d="M 0 1.5 
C 0.397805 1.5 0.77937 1.341951 1.06066 1.06066 
C 1.341951 0.77937 1.5 0.397805 1.5 0 
C 1.5 -0.397805 1.341951 -0.77937 1.06066 -1.06066 
C 0.77937 -1.341951 0.397805 -1.5 0 -1.5 
C -0.397805 -1.5 -0.77937 -1.341951 -1.06066 -1.06066 
C -1.341951 -0.77937 -1.5 -0.397805 -1.5 0 
C -1.5 0.397805 -1.341951 0.77937 -1.06066 1.06066 
C -0.77937 1.341951 -0.397805 1.5 0 1.5 
z
" style="stroke: #e69f00"/>
    </defs>
    <g clip-path="url(#pa7242e7809)">
     <use xlink:href="#m5d44c39d37" x="560.395845" y="58.660075" style="fill: #e69f00; stroke: #e69f00"/>
     <use xlink:href="#m5d44c39d37" x="561.852649" y="18.101834" style="fill: #e69f00; stroke: #e69f00"/>
     <use xlink:href="#m5d44c39d37" x="563.309323" y="22.129401" style="fill: #e69f00; stroke: #e69f00"/>
     <use xlink:href="#m5d44c39d37" x="564.765924" y="50.780352" style="fill: #e69f00; stroke: #e69f00"/>
     <use xlink:href="#m5d44c39d37" x="566.222476" y="79.156625" style="fill: #e69f00; stroke: #e69f00"/>
     <use xlink:href="#m5d44c39d37" x="567.67899" y="97.540444" style="fill: #e69f00; stroke: #e69f00"/>
     <use xlink:href="#m5d44c39d37" x="569.135476" y="106.87046" style="fill: #e69f00; stroke: #e69f00"/>
     <use xlink:href="#m5d44c39d37" x="570.591937" y="110.852461" style="fill: #e69f00; stroke: #e69f00"/>
     <use xlink:href="#m5d44c39d37" x="572.048379" y="112.337357" style="fill: #e69f00; stroke: #e69f00"/>
     <use xlink:href="#m5d44c39d37" x="573.504804" y="112.832949" style="fill: #e69f00; stroke: #e69f00"/>
     <use xlink:href="#m5d44c39d37" x="574.961215" y="112.983474" style="fill: #e69f00; stroke: #e69f00"/>
     <use xlink:href="#m5d44c39d37" x="576.417614" y="113.025591" style="fill: #e69f00; stroke: #e69f00"/>
    </g>
   </g>
   <g id="line2d_19">
    <path d="M 560.395845 113.04 
L 576.417614 113.04 
" clip-path="url(#pa7242e7809)" style="fill: none; stroke: #e69f00; stroke-width: 1.5; stroke-linecap: square"/>
   </g>
   <g id="patch_3">
    <path d="M 43.78125 118.08 
L 43.78125 7.2 
" style="fill: none; stroke: #000000; stroke-width: 0.8; stroke-linejoin: miter; stroke-linecap: square"/>
   </g>
   <g id="patch_4">
    <path d="M 601.78125 118.08 
L 601.78125 7.2 
" style="fill: none; stroke: #000000; stroke-width: 0.8; stroke-linejoin: miter; stroke-linecap: square"/>
   </g>
   <g id="patch_5">
    <path d="M 43.78125 118.08 
L 601.78125 118.08 
" style="fill: none; stroke: #000000; stroke-width: 0.8; stroke-linejoin: miter; stroke-linecap: square"/>
   </g>
   <g id="patch_6">
    <path d="M 43.78125 7.2 
L 601.78125 7.2 
" style="fill: none; stroke: #000000; stroke-width: 0.8; stroke-linejoin: miter; stroke-linecap: square"/>
   </g>
   <g id="legend_1">
    <g id="patch_7">
     <path d="M 636.68125 75.025 
L 711.63125 75.025 
Q 713.63125 75.025 713.63125 73.025 
L 713.63125 14.2 
Q 713.63125 12.2 711.63125 12.2 
L 636.68125 12.2 
Q 634.68125 12.2 634.68125 14.2 
L 634.68125 73.025 
Q 634.68125 75.025 636.68125 75.025 
z
" style="fill: #ffffff; opacity: 0.8; stroke: #cccccc; stroke-linejoin: miter"/>
    </g>
    <g id="line2d_20">
     <path d="M 648.68125 23.798438 
L 648.68125 18.985938 
" style="fill: none; stroke: #0072b2; stroke-width: 1.5"/>
    </g>
    <g id="line2d_21">
     <path d="M 638.68125 23.798438 
L 658.68125 23.798438 
" style="fill: none; stroke: #0072b2; stroke-width: 1.5; stroke-linecap: square"/>
    </g>
    <g id="line2d_22">
     <g>
      <use xlink:href="#mc9cac219cd" x="648.68125" y="18.985938" style="fill: #0072b2; stroke: #0072b2"/>
     </g>
    </g>
    <g id="text_14">
     <!-- base_3C -->
     <g transform="translate(666.68125 23.798438) scale(0.1 -0.1)">
      <defs>
       <path id="DejaVuSans-62" d="M 3116 1747 
Q 3116 2381 2855 2742 
Q 2594 3103 2138 3103 
Q 1681 3103 1420 2742 
Q 1159 2381 1159 1747 
Q 1159 1113 1420 752 
Q 1681 391 2138 391 
Q 2594 391 2855 752 
Q 3116 1113 3116 1747 
z
M 1159 2969 
Q 1341 3281 1617 3432 
Q 1894 3584 2278 3584 
Q 2916 3584 3314 3078 
Q 3713 2572 3713 1747 
Q 3713 922 3314 415 
Q 2916 -91 2278 -91 
Q 1894 -91 1617 61 
Q 1341 213 1159 525 
L 1159 0 
L 581 0 
L 581 4863 
L 1159 4863 
L 1159 2969 
z
" transform="scale(0.015625)"/>
       <path id="DejaVuSans-5f" d="M 3263 -1063 
L 3263 -1509 
L -63 -1509 
L -63 -1063 
L 3263 -1063 
z
" transform="scale(0.015625)"/>
       <path id="DejaVuSans-43" d="M 4122 4306 
L 4122 3641 
Q 3803 3938 3442 4084 
Q 3081 4231 2675 4231 
Q 1875 4231 1450 3742 
Q 1025 3253 1025 2328 
Q 1025 1406 1450 917 
Q 1875 428 2675 428 
Q 3081 428 3442 575 
Q 3803 722 4122 1019 
L 4122 359 
Q 3791 134 3420 21 
Q 3050 -91 2638 -91 
Q 1578 -91 968 557 
Q 359 1206 359 2328 
Q 359 3453 968 4101 
Q 1578 4750 2638 4750 
Q 3056 4750 3426 4639 
Q 3797 4528 4122 4306 
z
" transform="scale(0.015625)"/>
      </defs>
      <use xlink:href="#DejaVuSans-62"/>
      <use xlink:href="#DejaVuSans-61" transform="translate(63.476562 0)"/>
      <use xlink:href="#DejaVuSans-73" transform="translate(124.755859 0)"/>
      <use xlink:href="#DejaVuSans-65" transform="translate(176.855469 0)"/>
      <use xlink:href="#DejaVuSans-5f" transform="translate(238.378906 0)"/>
      <use xlink:href="#DejaVuSans-33" transform="translate(288.378906 0)"/>
      <use xlink:href="#DejaVuSans-43" transform="translate(352.001953 0)"/>
     </g>
    </g>
    <g id="line2d_23">
     <path d="M 648.68125 38.754688 
L 648.68125 33.942188 
" style="fill: none; stroke: #cc6677; stroke-width: 1.5"/>
    </g>
    <g id="line2d_24">
     <path d="M 638.68125 38.754688 
L 658.68125 38.754688 
" style="fill: none; stroke: #cc6677; stroke-width: 1.5; stroke-linecap: square"/>
    </g>
    <g id="line2d_25">
     <g>
      <use xlink:href="#m7fe9bed9cb" x="648.68125" y="33.942188" style="fill: #cc6677; stroke: #cc6677"/>
     </g>
    </g>
    <g id="text_15">
     <!-- base_3T -->
     <g transform="translate(666.68125 38.754688) scale(0.1 -0.1)">
      <defs>
       <path id="DejaVuSans-54" d="M -19 4666 
L 3928 4666 
L 3928 4134 
L 2272 4134 
L 2272 0 
L 1638 0 
L 1638 4134 
L -19 4134 
L -19 4666 
z
" transform="scale(0.015625)"/>
      </defs>
      <use xlink:href="#DejaVuSans-62"/>
      <use xlink:href="#DejaVuSans-61" transform="translate(63.476562 0)"/>
      <use xlink:href="#DejaVuSans-73" transform="translate(124.755859 0)"/>
      <use xlink:href="#DejaVuSans-65" transform="translate(176.855469 0)"/>
      <use xlink:href="#DejaVuSans-5f" transform="translate(238.378906 0)"/>
      <use xlink:href="#DejaVuSans-33" transform="translate(288.378906 0)"/>
      <use xlink:href="#DejaVuSans-54" transform="translate(352.001953 0)"/>
     </g>
    </g>
    <g id="line2d_26">
     <path d="M 648.68125 53.710938 
L 648.68125 48.898438 
" style="fill: none; stroke: #44aa99; stroke-width: 1.5"/>
    </g>
    <g id="line2d_27">
     <path d="M 638.68125 53.710938 
L 658.68125 53.710938 
" style="fill: none; stroke: #44aa99; stroke-width: 1.5; stroke-linecap: square"/>
    </g>
    <g id="line2d_28">
     <g>
      <use xlink:href="#ma6e8fe1a2b" x="648.68125" y="48.898438" style="fill: #44aa99; stroke: #44aa99"/>
     </g>
    </g>
    <g id="text_16">
     <!-- base_3A -->
     <g transform="translate(666.68125 53.710938) scale(0.1 -0.1)">
      <defs>
       <path id="DejaVuSans-41" d="M 2188 4044 
L 1331 1722 
L 3047 1722 
L 2188 4044 
z
M 1831 4666 
L 2547 4666 
L 4325 0 
L 3669 0 
L 3244 1197 
L 1141 1197 
L 716 0 
L 50 0 
L 1831 4666 
z
" transform="scale(0.015625)"/>
      </defs>
      <use xlink:href="#DejaVuSans-62"/>
      <use xlink:href="#DejaVuSans-61" transform="translate(63.476562 0)"/>
      <use xlink:href="#DejaVuSans-73" transform="translate(124.755859 0)"/>
      <use xlink:href="#DejaVuSans-65" transform="translate(176.855469 0)"/>
      <use xlink:href="#DejaVuSans-5f" transform="translate(238.378906 0)"/>
      <use xlink:href="#DejaVuSans-33" transform="translate(288.378906 0)"/>
      <use xlink:href="#DejaVuSans-41" transform="translate(352.001953 0)"/>
     </g>
    </g>
    <g id="line2d_29">
     <path d="M 648.68125 68.667188 
L 648.68125 63.854688 
" style="fill: none; stroke: #e69f00; stroke-width: 1.5"/>
    </g>
    <g id="line2d_30">
     <path d="M 638.68125 68.667188 
L 658.68125 68.667188 
" style="fill: none; stroke: #e69f00; stroke-width: 1.5; stroke-linecap: square"/>
    </g>
    <g id="line2d_31">
     <g>
      <use xlink:href="#m5d44c39d37" x="648.68125" y="63.854688" style="fill: #e69f00; stroke: #e69f00"/>
     </g>
    </g>
    <g id="text_17">
     <!-- base_3G -->
     <g transform="translate(666.68125 68.667188) scale(0.1 -0.1)">
      <defs>
       <path id="DejaVuSans-47" d="M 3809 666 
L 3809 1919 
L 2778 1919 
L 2778 2438 
L 4434 2438 
L 4434 434 
Q 4069 175 3628 42 
Q 3188 -91 2688 -91 
Q 1594 -91 976 548 
Q 359 1188 359 2328 
Q 359 3472 976 4111 
Q 1594 4750 2688 4750 
Q 3144 4750 3555 4637 
Q 3966 4525 4313 4306 
L 4313 3634 
Q 3963 3931 3569 4081 
Q 3175 4231 2741 4231 
Q 1884 4231 1454 3753 
Q 1025 3275 1025 2328 
Q 1025 1384 1454 906 
Q 1884 428 2741 428 
Q 3075 428 3337 486 
Q 3600 544 3809 666 
z
" transform="scale(0.015625)"/>
      </defs>
      <use xlink:href="#DejaVuSans-62"/>
      <use xlink:href="#DejaVuSans-61" transform="translate(63.476562 0)"/>
      <use xlink:href="#DejaVuSans-73" transform="translate(124.755859 0)"/>
      <use xlink:href="#DejaVuSans-65" transform="translate(176.855469 0)"/>
      <use xlink:href="#DejaVuSans-5f" transform="translate(238.378906 0)"/>
      <use xlink:href="#DejaVuSans-33" transform="translate(288.378906 0)"/>
      <use xlink:href="#DejaVuSans-47" transform="translate(352.001953 0)"/>
     </g>
    </g>
   </g>
  </g>
 </g>
 <defs>
  <clipPath id="pa7242e7809">
   <rect x="43.78125" y="7.2" width="558" height="110.88"/>
  </clipPath>
 </defs>
</svg>
